<ttFont>
<head>
    <!-- Most of this table will be recalculated by the compiler -->
    <tableVersion value="1.0"/>
    <fontRevision value="2.01999"/>
    <checkSumAdjustment value="0x9c30be21"/>
    <magicNumber value="0x5f0f3cf5"/>
    <flags value="00000000 00000011"/>
    <unitsPerEm value="1000"/>
    <created value="Mon Sep 17 16:48:31 2018"/>
    <modified value="Mon Sep 17 16:48:31 2018"/>
    <xMin value="-454"/>
    <yMin value="-293"/>
    <xMax value="2159"/>
    <yMax value="968"/>
    <macStyle value="00000000 00000000"/>
    <lowestRecPPEM value="3"/>
    <fontDirectionHint value="2"/>
    <indexToLocFormat value="0"/>
    <glyphDataFormat value="0"/>
  </head>
          <CharString index="0">
            -96 callgsubr
            vhcurveto
            24 66 -106 callsubr
            return
          </CharString>
          <CharString index="1">
            rmoveto
            -48 -38 23 55 62 56 40 162 20 hvcurveto
            -135 vlineto
            -42 -47 -38 -23 -47 hhcurveto
            return
          </CharString>
          <CharString index="2">
            7 -58 rlineto
            68 298 hlineto
            -107 callgsubr
            return
          </CharString>
          <CharString index="3">
            -36 55 rlineto
            -27 -30 -39 -22 -45 hhcurveto
            -89 -61 75 111 112 64 76 88 39 30 -18 -25 28 hvcurveto
            42 54 -102 callsubr
            return
          </CharString>
          <CharString index="4">
            194 -12 rmoveto
            61 54 32 38 46 hvcurveto
            3 hlineto
            return
          </CharString>
          <CharString index="5">
            rlineto
            31 -34 -44 26 -64 hhcurveto
            -125 -109 -93 -163 return
          </CharString>
          <CharString index="6">
            69 -36 -21 429 69 return
          </CharString>
          <CharString index="7">
            hstemhm
            52 80 218 83 return
          </CharString>
          <CharString index="8">
            45 hhcurveto
            -14 69 rmoveto
            -32 return
          </CharString>
          <CharString index="9">
            -99 callsubr
            -44 14 37 -43 hvcurveto
            return
          </CharString>
        <CharString name=".notdef">
          95 0 58 542 60 hstem
          89 65 344 67 vstem
          89 hmoveto
          476 660 -476 hlineto
          108 -602 rmoveto
          74 132 54 103 -105 callgsubr
          52 -103 73 -132 rlineto
          -129 329 rmoveto
          -50 94 -66 119 rlineto
          235 hlineto
          -66 -119 -49 -94 rlineto
          -175 -277 rmoveto
          462 vlineto
          127 -232 rlineto
          217 -230 rmoveto
          -126 230 126 232 rlineto
          endchar
        </CharString>
        <CharString name="a">
          -103 callgsubr
          -100 callsubr
          hintmask 10111000
          -103 callsubr
          hintmask 01111000
          -105 callsubr
          hintmask 10111000
          -107 callsubr
          endchar
        </CharString>
        <CharString name="b">
          -5 -95 callgsubr
          214 -20 hstemhm
          82 82 258 85 hintmask 10111100
          297 -12 rmoveto
          111 99 97 166 150 -67 97 -126 -54 -54 -29 -39 -44 hvcurveto
          2 88 rlineto
          194 -82 vlineto
          hintmask 01111100
          -712 66 vlineto
          hintmask 10111100
          -100 callgsubr
          endchar
        </CharString>
        <CharString name="c">
          -104 callgsubr
          endchar
        </CharString>
      <CharString index="0">
        121 -50 79 -119 -78 -68 -34 -29 -45 vhcurveto
        32 -57 rlineto
        26 38 51 26 56 hhcurveto
        80 20 -60 -62 hvcurveto
        -207 -23 -91 -53 -106 vvcurveto
        return
      </CharString>
      <CharString index="1">
        vstem
        274 -12 rmoveto
        58 55 23 39 44 hvcurveto
        -104 callsubr
        -161 99 -93 129 hvcurveto
        return
      </CharString>
      <CharString index="2">
        rlineto
        4 hlineto
        return
      </CharString>
      <CharString index="3">
        -102 -98 callgsubr
        -106 callgsubr
        return
      </CharString>
      <CharString index="4">
        -54 -12 -102 callgsubr
        return
      </CharString>
      <CharString index="5">
        66 -33 -21 430 68 return
      </CharString>
      <CharString index="6">
        68 374 68 return
      </CharString>
      <CharString index="7">
        7 50 rlineto
        3 hlineto
        -39 43 51 -23 -98 callsubr
        255 vlineto
        43 46 43 -99 callgsubr
        return
      </CharString>
      <CharString index="8">
        23 41 hhcurveto
        92 36 -72 -107 -120 -59 -73 -80 hvcurveto
        return
      </CharString>
      <CharString index="9">
        -12 -97 callgsubr
        return
      </CharString>
      <CharString index="10">
        -101 callgsubr
        hstem
        46 85 return
      </CharString>
      <CharString index="11">
        -87 61 -51 81 return
      </CharString>
      <CharString index="12">
        -12 -101 callsubr
        return
      </CharString>
</ttFont>
